<?xml version="1.0" encoding="utf-8"?>
<!-- Generator: Adobe Illustrator 23.0.1, SVG Export Plug-In . SVG Version: 6.00 Build 0)  -->
<svg version="1.1" id="Layer_1" xmlns="http://www.w3.org/2000/svg" xmlns:xlink="http://www.w3.org/1999/xlink" x="0px" y="0px"
	 viewBox="0 0 459.8 350.1" style="enable-background:new 0 0 459.8 350.1;" xml:space="preserve">
<style type="text/css">
	.st0{fill:#766458;}
	.st1{fill:#81B3D3;}
	.st2{fill:#FFFFFF;}
</style>
<g>
	<path class="st0" d="M165.4,70l-0.2,0.2c-1.4,1.5-3,2.2-4.5,2.2l2.8-4.9c1.8-3.1,0.1-6.1-2.7-6.1c-2.3,0-4.1,0.9-5.8,3.9l-1.5,2.6
		l-1.2,2.1l-0.2,0.2c-2.2,2.5-4.3,4.5-5.6,4.5c-0.7,0-1-0.5-0.3-1.6l6.4-11.2h2.4l0.9-1.4h-2.5l2.8-4.9h-3l-2.8,4.9h-2.7l-0.9,1.4
		h2.7l-6,10.4c-1.3,2.2-0.4,4.3,2,4.3c1.7,0,3.7-1.3,5.5-3.1c0,3.8,5.3,4.6,8.5,0.5h0.7c1.8,0,4.6-1.1,6.1-2.9
		C166.3,70.6,165.8,70.2,165.4,70z M159,70.2h-0.1c-1,0-1.8,0.8-1.8,1.8c0,0.4,0.1,0.7,0.3,1l0,0.1c-1.4,2.4-4.8,2-3.1-1.2l2.3-3.9
		l1.4-2.4c2.1-3.6,5-2.2,3.2,0.9L159,70.2z"/>
	<path class="st0" d="M206.9,70l-0.2,0.2c-2.2,2.5-4.9,4.5-7,4.5c-1.8,0-2.9-1.2-1.6-3.6l0.3-0.5c1.9,0.8,5.6,0.4,7.8-3.5l0.4-0.7
		c1.6-2.8,0.1-4.8-2.4-4.8c-2.4,0-4.3,1.3-5.6,3.5l-2.9,5l-0.2,0.2c-2.2,2.5-4.3,4.5-5.6,4.5c-0.7,0-1-0.5-0.3-1.6l4.3-7.6
		c1.3-2.3,0.1-3.9-1.6-3.9c-1.3,0-2.7,0.7-4.2,2.3l4.8-8.3h-3L181.6,70l-0.2,0.2c-2.2,2.5-4.3,4.5-5.6,4.5c-0.7,0-1-0.5-0.3-1.6
		l6.4-11.2h2.4l0.9-1.4h-2.5l2.8-4.9h-3l-2.8,4.9H177l-0.9,1.4h2.7l-6,10.4c-1.3,2.2-0.4,4.3,2,4.3c1.2,0,2.5-0.6,3.8-1.6l-0.8,1.3
		h3l4.5-7.9c4.6-5.8,6.6-5,5.4-2.8l-3.9,6.8c-1.3,2.2-0.4,4.3,2,4.3c1.8,0,3.8-1.4,5.6-3.2c0.1,1.9,1.7,3.2,4.1,3.2
		c3.4,0,6.8-2.6,9.2-5.5C207.8,70.6,207.3,70.2,206.9,70z M201.2,65.8c1.7-3,4.8-2.5,3,0.6l-0.4,0.7c-1.4,2.4-3.4,2.4-4.5,2
		L201.2,65.8z"/>
	<path class="st0" d="M316,70l-0.2,0.2c-1.1,1.3-2.4,2.4-3.6,3.3c1-2.9,0.7-7.2,2.6-11.1l-2.2-1.2c-1.2,1.7-3.9,5.6-6.7,8.8v0
		l-0.2,0.2c-2.2,2.5-4.3,4.5-5.6,4.5c-0.7,0-1-0.5-0.3-1.6l6.4-11.2h-3l-5.3,9.3c-2.3,2.1-4,3.2-4.6,3c-0.7-0.3,0-1.4,0.4-2.1
		l5.8-10.2h-3l-4.7,8.1l-0.2,0.2c-1.4,1.5-3,2.2-4.5,2.2l2.8-4.9c1.8-3.1,0.1-6.1-2.7-6.1c-2.3,0-4.1,0.9-5.8,3.9l-1.5,2.6l-1.2,2.1
		l-0.2,0.2c-2.2,2.5-4.9,4.5-7,4.5c-1.8,0-2.9-1.2-1.6-3.6l0.3-0.5c1.9,0.8,5.6,0.4,7.8-3.5l0.4-0.7c1.6-2.8,0.1-4.8-2.4-4.8
		c-2.4,0-4.3,1.3-5.6,3.5l-2.9,5l-0.2,0.2c-2.5,2.9-4.6,4.7-7,5.7l6.7-11.5h-1.8c0-1.2-1.3-2.9-3.1-2.9c-1.6,0-3.9,1.3-5.1,3.5
		l-2.9,5c0,0,0,0,0,0l-0.2,0.2c-2.2,2.5-4.3,4.5-5.6,4.5c-0.7,0-1-0.5-0.3-1.6l3-5.2c1-1.8,0.5-2.9-0.4-4.1l-1.7-2
		c-0.4-0.5-0.4-1.2,0.2-1.7l-1.6-1.7c-1.7,1.5-1.8,3.2-0.8,4.6l0.3,0.3c-1.3,1.9-3.1,4.4-5.1,6.7l0,0l-0.2,0.2
		c-1.4,1.5-3,2.2-4.5,2.2l2.8-4.9c1.8-3.1,0.1-6.1-2.7-6.1c-2.3,0-4.1,0.9-5.8,3.9l-1.5,2.6l-1.2,2.1l-0.2,0.2
		c-2.5,2.9-4.6,4.7-7,5.7l6.7-11.5h-1.8c0-1.2-1.3-2.9-3.1-2.9c-1.6,0-3.9,1.3-5.1,3.5l-4.2,7.3c-1.3,2.2-0.4,4.3,2,4.3
		c0.8,0,1.8-0.4,2.9-1l-0.8,1.4c-4,1.2-6.6,2.9-6.6,5.1c0,2.9,4.4,3.5,6.6-0.2l2.3-3.9c2.4-0.7,4.7-2.2,7.2-4.5
		c0,3.8,5.3,4.6,8.5,0.5h0.7c1.8,0,4.6-1.1,6.1-2.9l0,0c1.4-1.7,2.6-3.2,5-6.4l0.4,0.5c0.4,0.5,0.5,1.1,0.2,1.7l-3.2,5.5
		c-1.3,2.2-0.4,4.3,2,4.3c1.5,0,3.2-1,4.8-2.4c0,1.4,0.9,2.4,2.6,2.4c0.8,0,1.8-0.4,2.9-1L257,77c-4,1.2-6.6,2.9-6.6,5.1
		c0,2.9,4.4,3.5,6.6-0.2l2.3-3.9c2.4-0.8,4.8-2.2,7.3-4.6c0.1,1.9,1.6,3.2,4.1,3.2c2.4,0,4.9-1.4,6.9-3.2c-0.1,3.9,5.3,4.7,8.5,0.6
		h0.7c0.9,0,2.2-0.3,3.3-0.9c-0.8,2.1-0.1,3.5,1.6,3.5c1.6,0,3.5-1.5,4.9-2.9c-0.3,1.6,0.7,2.9,2.6,2.9c2.5,0,5.3-2.6,7.8-5.5l0,0
		c1.7-2,3.2-4.1,4.3-5.5c-1.2,3.1-0.5,8.7-3.4,8.7c-1,0-1.4-1.1-1.4-1.1l-1.9,1c0,0,0.5,2.4,3.3,2.4c0.3,0,0.5,0,0.8-0.1
		c0,0,0.1,0,0.1,0c3.1-0.4,6.1-2.8,8.3-5.4C317,70.6,316.5,70.1,316,70z M273.1,65.8c1.7-3,4.8-2.5,3,0.6l-0.4,0.7
		c-1.4,2.4-3.4,2.4-4.5,2L273.1,65.8z M215.9,81.4c-0.6,1.1-1.6,1-1.6,0.1c0-0.8,0.7-1.7,3-2.6L215.9,81.4z M217.3,74.7
		c-0.7,0-1-0.5-0.3-1.6l4.2-7.3c1.6-2.8,4.8-2.1,3.3,0.6l-2.3,4C220.4,73.3,218.5,74.7,217.3,74.7z M235.7,70.2h-0.1
		c-1,0-1.8,0.8-1.8,1.8c0,0.4,0.1,0.7,0.3,1l0,0.1c-1.4,2.4-4.8,2-3.1-1.2l2.3-3.9l1.4-2.4c2.1-3.6,5-2.2,3.2,0.9L235.7,70.2z
		 M254.5,81.4c-0.6,1.1-1.6,1-1.6,0.1c0-0.8,0.7-1.7,3-2.6L254.5,81.4z M255.9,74.7c-0.7,0-1-0.5-0.3-1.6l4.2-7.3
		c1.6-2.8,4.8-2.1,3.3,0.6l-2.3,4C259,73.3,257.1,74.7,255.9,74.7z M285.4,70.2h-0.1c-1,0-1.8,0.8-1.8,1.8c0,0.4,0.1,0.7,0.3,1
		l0,0.1c-1.4,2.4-4.8,2-3.1-1.2L283,68l1.4-2.4c2.1-3.6,5-2.2,3.2,0.9L285.4,70.2z"/>
</g>
<rect x="101.4" y="66.8" class="st0" width="28.9" height="2"/>
<rect x="328.4" y="66.8" class="st0" width="28.9" height="2"/>
<g>
	<path class="st1" d="M163.2,0h7.7l-1.2,44.9h-14.5l-2-18.5l-2,18.5h-14.6L135.5,0h7.6l0.6,37.2h0.8L149.4,0h7.6l4.9,37.2h0.8
		L163.2,0z"/>
	<path class="st1" d="M195,37.2v7.8h-20.9V0H195v7.7h-13.3v10.8h10.6v7.7h-10.6v10.9H195z"/>
	<path class="st1" d="M216.4,37.2v7.8h-18.3V0h7.6v37.2H216.4z"/>
	<path class="st1" d="M232.6,28.4l7.7-1.8v13.6c0,2.6-2.2,4.7-4.7,4.7h-11.5c-2.6,0-4.7-2.2-4.7-4.7V4.7c0-2.6,2.1-4.7,4.7-4.7h11.5
		c2.5,0,4.7,2.1,4.7,4.7v9.1l-7.7,1.8v-8h-5.5v29.5h5.5L232.6,28.4L232.6,28.4z"/>
	<path class="st1" d="M261.1,0c2.5,0,4.7,2.1,4.7,4.7v35.4c0,2.6-2.2,4.7-4.7,4.7h-11.5c-2.6,0-4.7-2.2-4.7-4.7V4.7
		c0-2.6,2.1-4.7,4.7-4.7H261.1z M258.1,7.7h-5.5v29.5h5.5V7.7z"/>
	<path class="st1" d="M290.8,0h7.6v44.9h-7.6V22.8l-3.1,11.4h-7.5l-3-11.4v22.1h-7.6V0h7.6l6.8,21.7L290.8,0z"/>
	<path class="st1" d="M323.1,37.2v7.8h-20.9V0h20.9v7.7h-13.3v10.8h10.6v7.7h-10.6v10.9H323.1z"/>
</g>
<g>
	<path class="st2" d="M44.5,157.6c-3.6-3-8.1-5-12.9-5c-3.6,0-8.3,2.1-8.3,6.3c0,4.4,5.3,6.1,8.6,7.1l5,1.5
		c10.4,3.1,18.5,8.3,18.5,20.4c0,7.4-1.8,15.1-7.7,20.1c-5.9,5-13.7,7-21.2,7c-9.4,0-18.7-3.2-26.3-8.5L8.3,191
		c4.9,4.3,10.6,7.7,17.3,7.7c4.6,0,9.4-2.3,9.4-7.5c0-5.5-7.6-7.3-11.8-8.5C11,179.1,3,176,3,161.5c0-15.2,10.8-25.1,25.8-25.1
		c7.5,0,16.8,2.4,23.4,6.2L44.5,157.6z"/>
	<path class="st2" d="M91.8,154.8v12.5h21.9v16.5H91.8v12.9H115v16.5H72.4v-74.8H115v16.5L91.8,154.8L91.8,154.8z"/>
	<path class="st2" d="M129.4,138.4H157c20.8,0,38,16.4,38,37.4c0,21-17.3,37.4-38,37.4h-27.6V138.4z M148.9,196.7h4.4
		c11.6,0,21.5-6.4,21.5-20.9c0-13.4-8.8-20.9-21.3-20.9h-4.6V196.7z"/>
	<path class="st2" d="M286.9,174.4c0,24.2-17.4,41.3-41.4,41.3c-24,0-41.4-17.1-41.4-41.3c0-22.6,19.9-38.5,41.4-38.5
		C267,135.9,286.9,151.8,286.9,174.4z M224.3,174.5c0,12.9,9.5,22.3,21.1,22.3c11.6,0,21.1-9.4,21.1-22.3c0-10.3-9.5-19.8-21.1-19.8
		C233.9,154.7,224.3,164.2,224.3,174.5z"/>
	<path class="st2" d="M297.2,138.4h19.5l35.6,45.8h0.2v-45.8H372v74.8h-19.5l-35.6-45.9h-0.2v45.9h-19.5V138.4z"/>
	<path class="st2" d="M407.3,200.2l-5.2,13h-20.6l28.8-74.8h21.2l28.2,74.8H439l-4.9-13H407.3z M420.9,161.5h-0.2l-8,23.8h16.2
		L420.9,161.5z"/>
</g>
<g>
	<path class="st2" d="M108.1,287.7c7.7-2.6,8.2-12.2,0.7-12.2c-2.1,0-4.6,1.5-6.3,4.4l-10.2,17.7c-0.5,0.8-0.9,1.5-1.5,2.2
		c-2.6-3.6-1.9-9,1.8-11.4l-1.5-1.9c-8,5.1-5.6,19.7,7.7,19.7C110.1,306.2,115.4,292.6,108.1,287.7z M98.7,303.3
		c-2.3,0-4-0.5-5.5-1.3c0.7-0.8,1.3-1.7,1.9-2.7l6.4-11.1l1,0.1C111.4,290.2,107.9,303.3,98.7,303.3z M102.8,286l3.1-5.3
		c2.8-4.8,6.3-2,4.4,1.6C108.8,285.1,106.7,285.9,102.8,286z"/>
	<path class="st2" d="M140.2,300c-0.6,2.2,0.6,4.1,3.1,4.1c1.5,0,3.4-1,5.3-2.5c0.2,1.5,1.4,2.5,3.3,2.5c2,0,4.2-1.4,6.4-3.4
		c-0.4,2,0.5,3.4,2.4,3.4c2.1,0,4.4-1.9,6.2-3.6c-0.4,2,0.8,3.6,3.2,3.6c3.1,0,6.7-3.4,9.9-7c0-0.1-0.1-0.1-0.1-0.2
		c2.1-2.4,3.9-5,5.3-6.8c-1.5,3.9-0.7,11-4.3,11c-1.3,0-1.8-1.4-1.8-1.4l-2.4,1.2c0,0,0.7,3.1,4.2,3.1c0.4,0,0.7,0,1.1-0.1
		c0,0,0.1,0,0.1,0c2.8-0.4,5.5-2.1,7.9-4.2c0.1,2.5,2,4.3,5.1,4.3c4.3,0,8.6-3.4,11.7-7c-0.3-0.5-0.9-1.1-1.4-1.3l-0.3,0.3
		c-2.7,3.2-6.2,5.7-8.9,5.7c-2.3,0-3.7-1.5-2-4.5l0.4-0.7c2.4,1,7,0.5,9.9-4.4l0.5-0.9c2-3.5,0.1-6.1-3-6.1c-3.1,0-5.5,1.6-7.1,4.4
		l-3.7,6.3c0,0-0.1,0-0.1,0l-0.3,0.3c-1.4,1.6-3.1,3.1-4.6,4.1c1.2-3.6,0.9-9.2,3.3-14l-2.8-1.5c-1.6,2.2-5,7.1-8.4,11.1
		c0,0,0.1,0.1,0.1,0.1l-0.1,0.2c-2.7,3.2-5.4,5.7-7.1,5.7c-0.8,0-1.3-0.6-0.4-2.1l8.1-14.2h-3.8l-6.7,11.8c-2.9,2.6-5.1,4.1-5.8,3.8
		c-0.9-0.4,0-1.8,0.5-2.6l7.4-12.9h-3.8l-6,10.4c-0.1-0.1-0.2-0.1-0.3-0.2l-0.3,0.3c-2.7,3.2-5.4,5.7-7.1,5.7
		c-0.8,0-1.3-0.6-0.4-2.1l6.1-10.7h-2.2c0.1-1.6-1.5-3.8-4-3.8c-2,0-4.9,1.6-6.5,4.4l-3.8,6.6c-0.2-0.2-0.4-0.3-0.6-0.4l-0.3,0.3
		c-2.7,3.2-6.2,5.7-8.9,5.7c-2.3,0-3.7-1.5-2-4.5l3.9-6.8c2.2-3.8,6.1-3.1,3.8,0.8l-0.5,0.9h3.1l0.5-0.9c2-3.5,0.1-6.1-3-6.1
		c-3.1,0-5.5,1.6-7.1,4.4l-3.8,6.5c-0.1-0.1-0.2-0.1-0.3-0.2l-0.3,0.3c-2.7,3.2-6.2,5.7-8.9,5.7c-2.3,0-3.7-1.5-2-4.5l0.4-0.7
		c2.4,1,7,0.5,9.9-4.4l0.5-0.9c2-3.5,0.1-6.1-3-6.1c-3.1,0-5.5,1.6-7.1,4.4l-4,6.8c-2.4,4-0.3,7.8,4.2,7.8c3.3,0,6.7-2,9.4-4.6
		c-0.1,2.6,1.9,4.6,5.1,4.6C134.4,304.1,137.5,302.3,140.2,300z M198.2,290.4c2.2-3.8,6.1-3.1,3.8,0.8l-0.5,0.9
		c-1.8,3.1-4.3,3-5.7,2.5L198.2,290.4z M144,299.7l5.3-9.2c2-3.5,6.1-2.6,4.2,0.8l-3,5.2c-2.3,3.6-4.6,5.3-6.1,5.3
		C143.6,301.7,143.1,301.2,144,299.7z M119.8,290.4c2.2-3.8,6.1-3.1,3.8,0.8l-0.5,0.9c-1.8,3.1-4.3,3-5.7,2.5L119.8,290.4z"/>
	<path class="st2" d="M248.4,304.1c4.3,0,8.6-3.4,11.7-7c-0.3-0.5-0.9-1.1-1.4-1.3l-0.3,0.3c-2.7,3.2-6.2,5.7-8.9,5.7
		c-2.3,0-3.7-1.5-2-4.5l0.4-0.7c2.4,1,7,0.5,9.9-4.4l0.5-0.9c2-3.5,0.1-6.1-3-6.1c-3.1,0-5.5,1.6-7.1,4.4l-3.7,6.3
		c0,0-0.1,0-0.1-0.1l-0.3,0.3c-2.7,3.2-5.4,5.7-7.1,5.7c-0.8,0-1.3-0.6-0.4-2.1l5.5-9.6c1.6-2.9,0.1-5-2-5c-1.6,0-3.4,0.9-5.3,2.9
		l6.1-10.5H237L226.3,296c-0.1-0.1-0.3-0.2-0.4-0.3l-0.3,0.3c-2.7,3.2-5.4,5.7-7.1,5.7c-0.8,0-1.3-0.6-0.4-2.1l8.1-14.2h3.1l1.1-1.8
		h-3.1l3.6-6.2h-3.8l-3.6,6.2h-3.4l-1.1,1.8h3.5l-7.6,13.2c-1.6,2.8-0.5,5.4,2.6,5.4c1.9,0,3.9-1.2,6-3l-1.5,2.6h3.8l5.8-10
		c5.8-7.3,8.4-6.4,6.8-3.6l-4.9,8.6c-1.6,2.8-0.5,5.4,2.6,5.4c2.3,0,4.9-1.8,7.3-4.2C243.4,302.3,245.3,304.1,248.4,304.1z
		 M251.5,290.4c2.2-3.8,6.1-3.1,3.8,0.8l-0.5,0.9c-1.8,3.1-4.3,3-5.7,2.5L251.5,290.4z"/>
	<path class="st2" d="M363.4,295.8l-0.3,0.3c-2.7,3.2-5.4,5.7-7.1,5.7c-0.8,0-1.3-0.6-0.4-2.1l12.8-22.2h-3.8l-5.6,9.6
		c-0.7-1.1-1.9-2-3.5-2c-2,0-4.9,1.6-6.5,4.4l-3.7,6.4c-0.1,0-0.2-0.1-0.2-0.1l-0.3,0.3c-2.7,3.2-5.4,5.7-7.1,5.7
		c-0.8,0-1.3-0.6-0.4-2.1l5.5-9.6c1.6-2.9,0.1-5-2-5c-1.6,0-3.4,0.9-5.3,2.8l1.4-2.5h-3.8l-6.1,10.5c-0.1-0.1-0.2-0.2-0.4-0.2
		l-0.3,0.3c-2.7,3.2-5.4,5.7-7.1,5.7c-0.8,0-1.3-0.6-0.4-2.1l6.1-10.7H323c0.1-1.6-1.5-3.8-4-3.8c-2,0-4.9,1.6-6.5,4.4l-3.7,6.3
		l-0.2,0.2c-2.7,3.2-5.4,5.7-7.1,5.7c-0.8,0-1.3-0.6-0.4-2.1l3.8-6.6c1.3-2.3,0.7-3.6-0.5-5.1l-2.1-2.6c-0.5-0.7-0.5-1.5,0.2-2.2
		l-2-2.2c-2.2,1.9-2.3,4.1-1,5.8l0.3,0.4c-1.7,2.4-3.9,5.6-6.4,8.5c0.1,0.1,0.2,0.2,0.3,0.3c-3.1,3.6-5.8,5.9-8.8,7.2l4.8-8.2H286
		l-0.4,0.7c-2,3.5-4.3,6.1-7.3,6.1c-2.6,0-3.1-2.6-0.8-6.5l1.1-1.9c0.7,0.1,1.4,0.2,2.2,0.2c13.5,0,20-18.1,8.1-18.1
		c-2.1,0-4.6,1.5-6.3,4.4l-5.9,10.2c-2.2-1.2-3.4-3.3-3.4-5.4c0-1.8,0.8-3.5,2.4-4.8l-1.2-2.2c-2.7,1.9-3.9,4.5-3.9,7.1
		c0,3,1.7,5.9,4.8,7.5l-1.1,2c-2.7,4.6-2.2,9.7,3.2,9.7c1.6,0,3-0.5,4.1-1.2l-1,1.7c-5.1,1.6-8.3,3.6-8.3,6.5c0,3.6,5.6,4.4,8.3-0.3
		l2.9-5c3.9-1.2,7.8-3.9,12-8.8c-0.1-0.1-0.1-0.2-0.2-0.4c1.7-2,3.1-3.9,6-7.8l0.5,0.6c0.5,0.6,0.7,1.4,0.2,2.2l-4,7
		c-1.6,2.8-0.5,5.4,2.6,5.4c1.9,0,4-1.2,6-3c0,1.7,1.1,3,3.3,3c1.5,0,3.4-1,5.3-2.5c0.2,1.5,1.4,2.5,3.3,2.5c1.8,0,3.8-1.1,5.7-2.8
		l-1.4,2.4h3.8l5.8-10.1c5.8-7.3,8.4-6.3,6.7-3.5l-4.9,8.6c-1.6,2.8-0.5,5.4,2.6,5.4c2,0,4.2-1.4,6.4-3.3c-0.2,1.9,1,3.3,3.3,3.3
		c1.5,0,3.4-1,5.3-2.5c0.2,1.5,1.4,2.5,3.3,2.5c3.1,0,6.7-3.4,9.9-7C364.6,296.6,363.9,296,363.4,295.8z M285.5,281.6
		c1.1-1.9,2.4-2.8,3.4-2.8c6,0,1.8,12.3-8.1,12.3H280L285.5,281.6z M277.4,310.2c-0.8,1.4-2.1,1.2-2.1,0.2c0-1,0.9-2.1,3.8-3.2
		L277.4,310.2z M317.1,296.4c-2.3,3.6-4.6,5.3-6.1,5.3c-0.8,0-1.3-0.6-0.4-2.1l5.3-9.2c2-3.5,6.1-2.6,4.2,0.8L317.1,296.4z
		 M353.8,296.2c-2.3,3.8-4.6,5.5-6.2,5.5c-0.8,0-1.3-0.6-0.4-2.1l5.3-9.2c2-3.5,6.1-2.6,4.2,0.8h0L353.8,296.2z"/>
	<path class="st2" d="M236.7,331.8l-0.3,0.3c-2.7,3.2-5.4,5.7-7.1,5.7c-0.8,0-1.3-0.6-0.4-2.1l5.5-9.6c1.6-2.9,0.1-5-2-5
		c-1.6,0-3.4,0.9-5.3,2.8l1.4-2.5h-3.8l-6.1,10.6c-0.2-0.1-0.3-0.2-0.5-0.3l-0.3,0.3c-1.7,1.9-3.8,2.8-5.7,2.8l3.6-6.2
		c2.3-4,0.2-7.7-3.4-7.7c-2.9,0-5.2,1.2-7.4,5l-1.9,3.2l-1.6,2.8c-0.1-0.1-0.2-0.1-0.3-0.2l-0.3,0.3c-3.1,3.6-5.8,5.9-8.8,7.2
		l10.4-17.8h-3.8l-6.7,11.7c-2.9,2.7-5.2,4.2-5.9,3.9c-0.9-0.4,0-1.8,0.5-2.6l7.4-12.9h-3.8l-6.1,10.5c-0.1-0.1-0.2-0.1-0.3-0.2
		l-0.3,0.3c-2.7,3.2-5.4,5.7-7.1,5.7c-0.8,0-1.3-0.6-0.4-2.1l5.5-9.6c1.6-2.9,0.1-5-2-5c-1.6,0-3.4,0.9-5.3,2.8l1.4-2.5h-3.8
		l-6.1,10.5c-0.1-0.1-0.2-0.2-0.4-0.2l-0.3,0.3c-2.7,3.2-5.4,5.7-7.1,5.7c-0.8,0-1.3-0.6-0.4-2.1l6.1-10.7h-2.2
		c0.1-1.6-1.5-3.8-4-3.8c-2,0-4.9,1.6-6.5,4.4l-3.9,6.8c-0.3-0.2-0.6-0.4-0.8-0.5l-0.3,0.3c-2.7,3.2-6.1,5.7-9.8,5.7
		c-2.6,0-4.2-2.6-1.9-6.5l1.1-1.9c0.7,0.1,1.4,0.2,2.2,0.2c4,0,8.6-2.1,11.6-7.3c1.1-1.9,1.5-3.6,1.5-5.1c0-3.4-2.2-5.7-5-5.7
		c-2.1,0-4.6,1.5-6.3,4.4l-5.9,10.2c-2.2-1.2-3.4-3.3-3.4-5.4c0-1.8,0.8-3.5,2.4-4.8l-1.2-2.2c-2.7,1.9-3.9,4.5-3.9,7.1
		c0,3,1.7,5.9,4.8,7.5l-1.1,2c-2.7,4.6-1.1,9.7,4.3,9.7c4.2,0,7.4-1.9,10-4.4c-0.8,2.4,0.4,4.4,3.1,4.4c1.5,0,3.4-1,5.3-2.5
		c0.2,1.5,1.4,2.5,3.3,2.5c1.8,0,3.8-1.1,5.7-2.8l-1.4,2.4h3.8l5.8-10.1c5.8-7.3,8.4-6.3,6.7-3.5l-4.9,8.6c-1.6,2.8-0.5,5.4,2.6,5.4
		c2,0,4.3-1.4,6.5-3.4c-0.5,2.1,0.5,3.4,2.4,3.4c1.8,0,3.9-1.5,5.6-3.1l-2.1,3.6c-5.1,1.5-8.4,3.6-8.4,6.5c0,3.6,5.6,4.4,8.3-0.3
		l2.9-5c3.2-1,6.3-3,9.6-6.2c-0.5,5.3,6.5,6.5,10.8,1.1h0.8c1.4,0,3.3-0.5,5-1.5l-2.5,4.4h3.8l5.8-10.1c5.8-7.3,8.4-6.3,6.7-3.5
		l-4.9,8.6c-1.6,2.8-0.5,5.4,2.6,5.4c3.1,0,6.7-3.4,9.9-7C237.9,332.6,237.2,332,236.7,331.8z M142.3,317.6c1.1-1.9,2.4-2.8,3.4-2.8
		c1.4,0,2.1,0.9,2.1,2.3c0,3.5-4.3,9.9-10.2,9.9h-0.8L142.3,317.6z M155.7,332.4c-2.3,3.6-4.6,5.3-6.1,5.3c-0.8,0-1.3-0.6-0.4-2.1
		l5.3-9.2c2-3.5,6.1-2.6,4.2,0.8L155.7,332.4z M184.5,346.2c-0.8,1.4-2.1,1.2-2.1,0.2c0-1,0.9-2.1,3.8-3.2L184.5,346.2z M210.1,332
		h-0.2c-1.2,0-2.2,1-2.2,2.3c0,0.5,0.1,0.9,0.4,1.3l0,0.1c-1.8,3.1-6.1,2.5-3.9-1.5l2.9-5l1.8-3.1c2.7-4.5,6.3-2.7,4,1.2L210.1,332z
		"/>
	<path class="st2" d="M324.6,333.1c-0.2-0.6-0.9-1.2-1.4-1.3l-0.3,0.3c-1.4,1.6-3.1,3.1-4.6,4.1c1.2-3.6,0.9-9.2,3.3-14l-2.8-1.5
		c-1.6,2.2-5,7.1-8.4,11.1c0,0,0,0,0,0c0,0,0,0,0,0l-0.3,0.3c-2.7,3.2-5.4,5.7-7.1,5.7c-0.8,0-1.6-0.8-1.6-2.6v-1.6
		c2.7,0.3,5.5-1.4,7.3-4.5l1-1.8c3.5-6.1-2.2-8.1-6.1-4.5l5.4-9.4h-3.8l-10.8,18.8c-0.2-0.2-0.5-0.4-0.7-0.5l-0.3,0.3
		c-2.7,3.2-6.2,5.7-8.9,5.7c-2.3,0-3.7-1.5-2-4.5l3.9-6.8c2.2-3.8,6.1-3.1,3.8,0.8l-0.5,0.9h3.1l0.5-0.9c2-3.5,0.1-6.1-3-6.1
		c-3.1,0-5.5,1.6-7.1,4.4l-3.7,6.4c-0.1,0-0.2-0.1-0.2-0.1l-0.3,0.3c-2.7,3.2-5.4,5.7-7.1,5.7c-0.8,0-1.3-0.6-0.4-2.1l8.1-14.2h-3.8
		l-6.7,11.8c-2.9,2.6-5.1,4.1-5.8,3.8c-0.9-0.4,0-1.8,0.5-2.6l7.4-12.9h-3.8l-7.4,12.7c-0.8,0.7-1.7,1.4-2.4,2
		c1.2-3.6,0.9-9.2,3.3-14l-2.8-1.5c-1.6,2.2-10.3,13.8-13.8,17.8c0.3,0.5,0.9,0.9,1.4,1.3c2.2-2.5,9.4-11.8,10.7-13.6
		c-1.5,3.9-0.7,11-4.3,11c-1.3,0-1.8-1.4-1.8-1.4l-2.4,1.2c0,0,0.7,3.1,4.2,3.1c0.4,0,0.7,0,1.1-0.1c0,0,0.1,0,0.1,0
		c1.9-0.3,3.8-1.1,5.6-2.4c0,1.5,0.9,2.5,2.5,2.5c2.1,0,4.4-1.9,6.2-3.6c-0.4,2,0.8,3.6,3.2,3.6c2.4,0,5-1.9,7.5-4.4
		c0,2.5,2,4.4,5.1,4.4c3.1,0,6.1-1.7,8.8-4l-2.1,3.7h3.8l4.3-7.5v3c0,3.2,0.6,4.9,3.7,4.9c3.1,0,6.7-3.4,9.9-7c0,0,0,0,0,0
		c0,0,0,0,0,0c2.2-2.5,4-5.1,5.4-6.9c-1.5,3.9-0.7,11-4.3,11c-1.3,0-1.8-1.4-1.8-1.4l-2.4,1.2c0,0,0.7,3.1,4.2,3.1
		c0.4,0,0.7,0,1.1-0.1c0,0,0.1,0,0.1,0C317.9,339.5,321.8,336.4,324.6,333.1z M299.4,330.1l1.1-1.9c4.4-6.1,7.4-4.4,6-2.1l-1.8,3.1
		C303.6,331.2,300.3,332.6,299.4,330.1z"/>
	<path class="st2" d="M324.5,335.7c-1.2,0-2.2,1-2.2,2.2c0,1.2,0.9,2.2,2.2,2.2c1.2,0,2.2-0.9,2.2-2.2
		C326.7,336.7,325.7,335.7,324.5,335.7z"/>
	<polygon class="st2" points="324.7,334.2 328.5,334.2 340.4,313.5 336.6,313.5 	"/>
</g>
<g>
	<path class="st2" d="M80.4,277.6c0,0.3-0.1,0.6-0.2,0.9c-0.1,0.3-0.3,0.6-0.5,0.8c-0.2,0.2-0.5,0.4-0.8,0.6
		c-0.3,0.1-0.7,0.2-1.1,0.2c-0.5,0-0.9-0.1-1.3-0.3c-0.4-0.2-0.8-0.4-1.1-0.7c-0.3-0.3-0.4-0.6-0.6-1c-0.1-0.4-0.2-0.8-0.2-1.3
		c0-0.9,0.2-1.6,0.5-2.4c0.3-0.7,0.7-1.4,1.3-1.9c0.2-0.2,0.5-0.5,0.8-0.7c0.3-0.2,0.6-0.4,0.9-0.5c0.3-0.1,0.5-0.3,0.7-0.4
		c0.2-0.1,0.3-0.1,0.4-0.2l1.4,2c-0.2,0.1-0.5,0.2-0.8,0.4c-0.3,0.1-0.6,0.3-0.9,0.5c-0.3,0.2-0.5,0.5-0.7,0.8
		c-0.2,0.3-0.3,0.6-0.3,1c0.7,0,1.2,0.2,1.7,0.6C80.2,276.3,80.4,276.9,80.4,277.6z M88.3,277.6c0,0.3-0.1,0.6-0.2,0.9
		c-0.1,0.3-0.3,0.6-0.5,0.8c-0.2,0.2-0.5,0.4-0.8,0.6c-0.3,0.1-0.7,0.2-1.1,0.2c-0.5,0-0.9-0.1-1.3-0.3c-0.4-0.2-0.8-0.4-1.1-0.7
		c-0.2-0.3-0.4-0.6-0.6-1c-0.1-0.4-0.2-0.8-0.2-1.3c0-0.9,0.2-1.6,0.5-2.4c0.3-0.7,0.7-1.4,1.3-1.9c0.2-0.2,0.5-0.5,0.8-0.7
		c0.3-0.2,0.6-0.4,0.9-0.5c0.3-0.1,0.5-0.3,0.7-0.4c0.2-0.1,0.3-0.1,0.4-0.2l1.4,2c-0.2,0.1-0.5,0.2-0.8,0.4
		c-0.3,0.1-0.6,0.3-0.9,0.5c-0.3,0.2-0.5,0.5-0.7,0.8c-0.2,0.3-0.3,0.6-0.3,1c0.7,0,1.2,0.2,1.7,0.6C88,276.3,88.3,276.9,88.3,277.6
		z"/>
</g>
<g>
	<path class="st2" d="M353.4,336.5c0-0.3,0.1-0.6,0.2-0.9c0.1-0.3,0.3-0.6,0.5-0.8c0.2-0.2,0.5-0.4,0.8-0.6c0.3-0.1,0.7-0.2,1.1-0.2
		c0.5,0,0.9,0.1,1.3,0.3c0.4,0.2,0.8,0.4,1.1,0.7c0.3,0.3,0.4,0.6,0.6,1c0.1,0.4,0.2,0.8,0.2,1.3c0,0.9-0.2,1.6-0.5,2.4
		c-0.3,0.7-0.7,1.4-1.3,1.9c-0.2,0.2-0.5,0.5-0.8,0.7c-0.3,0.2-0.6,0.4-0.9,0.5c-0.3,0.1-0.5,0.3-0.7,0.4c-0.2,0.1-0.3,0.1-0.4,0.2
		l-1.4-2c0.2-0.1,0.5-0.2,0.8-0.4c0.3-0.1,0.6-0.3,0.9-0.5c0.3-0.2,0.5-0.5,0.7-0.8c0.2-0.3,0.3-0.6,0.3-1c-0.7,0-1.2-0.2-1.7-0.6
		C353.7,337.8,353.4,337.2,353.4,336.5z M345.6,336.5c0-0.3,0.1-0.6,0.2-0.9c0.1-0.3,0.3-0.6,0.5-0.8c0.2-0.2,0.5-0.4,0.8-0.6
		c0.3-0.1,0.7-0.2,1.1-0.2c0.5,0,0.9,0.1,1.3,0.3c0.4,0.2,0.8,0.4,1.1,0.7c0.2,0.3,0.4,0.6,0.6,1c0.1,0.4,0.2,0.8,0.2,1.3
		c0,0.9-0.2,1.6-0.5,2.4c-0.3,0.7-0.7,1.4-1.3,1.9c-0.2,0.2-0.5,0.5-0.8,0.7c-0.3,0.2-0.6,0.4-0.9,0.5c-0.3,0.1-0.5,0.3-0.7,0.4
		c-0.2,0.1-0.3,0.1-0.4,0.2l-1.4-2c0.3-0.1,0.5-0.2,0.8-0.4c0.3-0.1,0.6-0.3,0.9-0.5c0.3-0.2,0.5-0.5,0.7-0.8c0.2-0.3,0.3-0.6,0.3-1
		c-0.7,0-1.2-0.2-1.7-0.6C345.8,337.8,345.6,337.2,345.6,336.5z"/>
</g>
</svg>
